<svg width="256" height="230" viewBox="0 0 256 230" fill="none" xmlns="http://www.w3.org/2000/svg">
<path d="M74.0497 223.72L58.9001 183.681L51.2588 186.573L66.4084 226.612C67.0272 228.246 68.5801 229.252 70.2299 229.252C70.7103 229.252 71.1989 229.167 71.6749 228.987C73.7845 228.188 74.8482 225.83 74.0497 223.72Z" fill="#864941"/>
<path d="M90.6599 223.72L74.4792 180.958L66.8379 183.849L83.0186 226.612C83.6374 228.246 85.1903 229.252 86.8401 229.252C87.3205 229.252 87.8091 229.167 88.2851 228.987C90.3946 228.188 91.4584 225.83 90.6599 223.72Z" fill="#864941"/>
<path d="M181.374 181.328L165.334 223.72C164.535 225.83 165.599 228.188 167.709 228.987C168.185 229.167 168.673 229.252 169.154 229.252C170.803 229.252 172.357 228.245 172.975 226.611L189.015 184.22L181.374 181.328Z" fill="#C92A57"/>
<path d="M197.1 183.681L181.95 223.72C181.152 225.83 182.215 228.188 184.325 228.986C184.801 229.166 185.29 229.251 185.77 229.251C187.419 229.251 188.973 228.245 189.591 226.611L204.741 186.572L197.1 183.681Z" fill="#C92A57"/>
<path d="M150.864 0.748291C149.8 0.748291 148.755 0.813653 147.727 0.938384L128.035 90.1565C129.52 89.3363 177.02 62.9603 177.02 26.9042C177.02 12.4594 165.309 0.748291 150.864 0.748291Z" fill="#E44670"/>
<path d="M147.727 0.938384C157.537 2.50705 165.137 13.5351 165.137 26.9048C165.137 62.8715 129.325 89.2121 128.036 90.1565C128.012 90.1685 128 90.1745 128 90.1745C128 90.1745 78.9795 63.5311 78.9795 26.9048C78.9795 12.4599 90.6852 0.748291 105.13 0.748291C114.982 0.748291 123.538 6.20323 128 14.2427C131.975 7.07036 139.218 1.95421 147.727 0.938384Z" fill="#FF6288"/>
<path d="M136.895 124.009C137.293 120.011 138.034 116.133 139.09 112.402H154.739L196.238 196.375C159.87 192.779 133.3 160.377 136.895 124.009Z" fill="#FFC5BB"/>
<path d="M153.148 124.009C150.534 160.377 169.832 192.78 196.238 196.375C208.787 197.616 220.857 195.263 231.44 190.165L158.53 112.402H154.739C153.97 116.133 153.437 120.011 153.148 124.009Z" fill="#FFA4A9"/>
<path d="M119.105 124.009C118.708 120.011 117.967 116.133 116.91 112.402H101.262L59.7627 196.375C96.1308 192.779 122.701 160.377 119.105 124.009Z" fill="#B26156"/>
<path d="M102.852 124.009C105.467 160.377 86.169 192.78 59.7631 196.375C47.2137 197.616 35.1436 195.263 24.5605 190.165L97.4711 112.402H101.262C102.031 116.133 102.564 120.011 102.852 124.009Z" fill="#CC8073"/>
<path d="M254.893 209.213C256.44 210.858 256.353 213.439 254.708 214.986C253.919 215.722 252.916 216.092 251.914 216.092C250.825 216.092 249.741 215.656 248.935 214.801L156.759 116.492H128L117.106 112.407L128 108.322H158.529C159.657 108.322 160.735 108.79 161.509 109.613L254.893 209.213Z" fill="#FFA4A9"/>
<path d="M128 108.322V116.492H99.241L7.06528 214.801C5.52384 216.446 2.93663 216.528 1.2917 214.986C-0.353224 213.439 -0.440373 210.858 1.10651 209.213L94.4915 109.613C95.2649 108.79 96.3434 108.322 97.4708 108.322H128Z" fill="#B26156"/>
</svg>
