<svg width="376" height="45" viewBox="0 0 376 45" fill="none" xmlns="http://www.w3.org/2000/svg">
<path d="M40.476 33.566C41.512 31.79 40.92 29.57 39.144 28.534C37.368 27.498 35.074 28.09 34.112 29.866C31.596 34.01 27.156 36.896 21.902 36.896C14.132 36.896 7.842 30.458 7.842 22.54C7.842 14.622 14.132 8.184 21.902 8.184C27.156 8.184 31.596 11.07 34.112 15.214C35.074 16.99 37.368 17.582 39.144 16.546C40.92 15.51 41.512 13.29 40.476 11.514C36.702 5.076 29.524 0.783996 21.902 0.783996C9.692 0.783996 0.442 10.626 0.442 22.54C0.442 34.454 9.692 44.296 21.902 44.296C29.524 44.296 36.702 40.004 40.476 33.566ZM82.5305 13.66C82.5305 6.704 76.9065 1.08 69.9505 1.08H52.1905C50.1185 1.08 48.4905 2.708 48.4905 4.78V40.596C48.4905 42.668 50.1185 44.296 52.1905 44.296C54.2625 44.296 55.8905 42.668 55.8905 40.596V26.24H64.6965L72.7625 42.224C73.4285 43.556 74.7605 44.296 76.0925 44.296C76.6105 44.296 77.2025 44.148 77.7205 43.926C79.5705 42.964 80.3105 40.744 79.4225 38.968L72.8365 25.944C78.3865 24.612 82.5305 19.58 82.5305 13.66ZM69.9505 18.84H55.8905V8.48H69.9505C72.8365 8.48 75.1305 10.774 75.1305 13.66C75.1305 16.546 72.8365 18.84 69.9505 18.84ZM87.6597 15.436C87.6597 21.504 91.5077 28.238 99.2037 35.342C104.606 40.226 109.86 43.556 110.082 43.704C110.674 44.074 111.414 44.296 112.08 44.296C112.746 44.296 113.486 44.074 114.078 43.704C114.3 43.556 119.554 40.226 124.956 35.342C132.652 28.238 136.5 21.504 136.5 15.436C136.5 7.37 130.21 0.783996 122.44 0.783996C118.37 0.783996 114.67 2.56 112.08 5.446C109.49 2.56 105.79 0.783996 101.72 0.783996C93.9497 0.783996 87.6597 7.37 87.6597 15.436ZM95.0597 15.436C95.0597 11.44 98.0197 8.184 101.72 8.184C105.42 8.184 108.38 11.292 108.38 15.14C108.38 17.212 110.008 18.84 112.08 18.84C114.152 18.84 115.78 17.212 115.78 15.14C115.78 11.292 118.74 8.184 122.44 8.184C126.14 8.184 129.1 11.44 129.1 15.436C129.1 19.21 125.918 24.316 119.998 29.792C117.038 32.53 114.004 34.824 112.08 36.156C110.156 34.824 107.196 32.604 104.236 29.866C98.2417 24.39 95.0597 19.21 95.0597 15.436ZM184.139 41.78L196.053 5.668C196.719 3.744 195.683 1.598 193.759 1.006C191.835 0.339998 189.763 1.376 189.097 3.3L180.661 28.904L172.299 3.3C171.781 1.82 170.449 0.783996 168.821 0.783996C167.193 0.783996 165.861 1.82 165.343 3.3L156.981 28.904L148.545 3.3C147.879 1.376 145.807 0.339998 143.883 1.006C141.959 1.598 140.923 3.744 141.589 5.668L153.503 41.78C154.021 43.26 155.353 44.296 156.981 44.296C158.609 44.296 160.015 43.26 160.459 41.78L168.821 16.472L177.183 41.78C177.627 43.26 179.033 44.296 180.661 44.296C182.289 44.296 183.621 43.26 184.139 41.78Z" fill="white"/>
<path d="M211.623 36.6V26.24H223.685C225.757 26.24 227.385 24.612 227.385 22.54C227.385 20.468 225.757 18.84 223.685 18.84H211.623V8.48H229.605C231.677 8.48 233.305 6.852 233.305 4.78C233.305 2.708 231.677 1.08 229.605 1.08H207.923C205.851 1.08 204.223 2.708 204.223 4.78V40.3C204.223 42.372 205.851 44 207.923 44H230.937C233.009 44 234.637 42.372 234.637 40.3C234.637 38.228 233.009 36.6 230.937 36.6H211.623ZM277.435 33.566C278.471 31.79 277.879 29.57 276.103 28.534C274.327 27.498 272.033 28.09 271.071 29.866C268.555 34.01 264.115 36.896 258.861 36.896C251.091 36.896 244.801 30.458 244.801 22.54C244.801 14.622 251.091 8.184 258.861 8.184C264.115 8.184 268.555 11.07 271.071 15.214C272.033 16.99 274.327 17.582 276.103 16.546C277.879 15.51 278.471 13.29 277.435 11.514C273.661 5.076 266.483 0.783996 258.861 0.783996C246.651 0.783996 237.401 10.626 237.401 22.54C237.401 34.454 246.651 44.296 258.861 44.296C266.483 44.296 273.661 40.004 277.435 33.566ZM312.09 4.484V18.84H292.85V4.484C292.85 2.412 291.222 0.783996 289.15 0.783996C287.078 0.783996 285.45 2.412 285.45 4.484V40.596C285.45 42.668 287.078 44.296 289.15 44.296C291.222 44.296 292.85 42.668 292.85 40.596V26.24H312.09V40.596C312.09 42.668 313.718 44.296 315.79 44.296C317.862 44.296 319.49 42.668 319.49 40.596V4.484C319.49 2.412 317.862 0.783996 315.79 0.783996C313.718 0.783996 312.09 2.412 312.09 4.484ZM326.787 15.436C326.787 21.504 330.635 28.238 338.331 35.342C343.733 40.226 348.987 43.556 349.209 43.704C349.801 44.074 350.541 44.296 351.207 44.296C351.873 44.296 352.613 44.074 353.205 43.704C353.427 43.556 358.681 40.226 364.083 35.342C371.779 28.238 375.627 21.504 375.627 15.436C375.627 7.37 369.337 0.783996 361.567 0.783996C357.497 0.783996 353.797 2.56 351.207 5.446C348.617 2.56 344.917 0.783996 340.847 0.783996C333.077 0.783996 326.787 7.37 326.787 15.436ZM334.187 15.436C334.187 11.44 337.147 8.184 340.847 8.184C344.547 8.184 347.507 11.292 347.507 15.14C347.507 17.212 349.135 18.84 351.207 18.84C353.279 18.84 354.907 17.212 354.907 15.14C354.907 11.292 357.867 8.184 361.567 8.184C365.267 8.184 368.227 11.44 368.227 15.436C368.227 19.21 365.045 24.316 359.125 29.792C356.165 32.53 353.131 34.824 351.207 36.156C349.283 34.824 346.323 32.604 343.363 29.866C337.369 24.39 334.187 19.21 334.187 15.436Z" fill="#F0010F"/>
</svg>
