<svg width="195" height="195" viewBox="0 0 195 195" fill="none" xmlns="http://www.w3.org/2000/svg">
<path opacity="0.5" d="M31.3066 32.0074L63.1769 39.2895L125.105 41.1176L163.13 34.9629L173.26 24.6187L174.677 31.1848L109.063 96.8144L105.163 104.081L104.995 145.945C104.995 145.945 106.412 155.878 110.495 157.828C114.578 159.778 129.127 161.561 134.977 165.994C140.827 170.427 138.176 174.693 138.176 174.693L127.71 182.493L98.0941 187.109L65.4621 183.742C65.4621 183.742 53.2593 176.216 53.2593 173.55C53.2593 173.55 52.7718 168.416 59.0788 164.76C64.6394 161.53 78.8378 160.875 82.1437 158.377C88.7097 153.41 89.0601 148.093 89.0601 148.093L89.5933 104.112L80.5441 93.6457C80.5441 93.6457 38.3296 54.4477 32.4796 48.0645C26.6296 41.6812 23.9636 38.1316 21.4804 34.3992C15.4019 25.2891 20.9624 19.1953 20.9624 19.1953L31.3066 32.0074Z" fill="white"/>
<path opacity="0.7" d="M26.7667 18.0679L54.082 11.1363L100.547 9.71948L148.444 15.4019L173.276 24.6187L174.693 31.1847L109.063 96.8144L105.163 104.081L104.995 145.945C104.995 145.945 106.412 155.878 110.495 157.828C114.578 159.778 129.126 161.561 134.976 165.994C140.826 170.427 138.176 174.693 138.176 174.693L127.71 182.493L98.0941 187.109L65.462 183.742C65.462 183.742 53.2593 176.216 53.2593 173.55C53.2593 173.55 52.7718 168.416 59.0788 164.76C64.6394 161.53 78.8378 160.875 82.1437 158.377C88.7097 153.41 89.0601 148.093 89.0601 148.093L89.5933 104.112L80.5441 93.6457C80.5441 93.6457 38.3296 54.4476 32.4796 48.0644C26.6296 41.6812 23.9636 38.1316 21.4804 34.3992C15.4019 25.289 20.9624 19.1953 20.9624 19.1953L26.7667 18.0679Z" fill="#E0E0E0"/>
<path d="M37.9185 40.097C37.9185 40.097 55.8645 30.865 97.8048 31.4134C139.745 31.9618 156.213 43.5704 156.213 43.5704L132.539 59.9474L68.9052 56.9767L37.9185 40.097Z" fill="#FEF9E5"/>
<path d="M98.8709 50.3647C59.9014 49.4355 37.2783 40.1577 37.2783 40.1577L83.667 85.9827C83.667 85.9827 89.1666 92.8991 96.2201 92.8991C103.274 92.8991 105.924 89.8827 108.347 88.0241C110.754 86.1655 156.274 43.5854 156.274 43.5854C156.274 43.5854 131.899 51.1417 98.8709 50.3647Z" fill="#E5DDA0"/>
<path d="M171.432 31.7942L169.01 35.1762C169.01 35.1762 116.192 86.3942 106.092 95.9004C101.948 99.8004 100.532 102.756 100.699 107.372C100.851 111.607 97.9722 133.118 97.9722 133.118L100.806 156.868C100.806 156.868 102.162 160.738 105.269 163.069C108.377 165.4 115.933 166.359 115.933 166.359C115.933 166.359 109.931 162.825 107.798 157.295C105.666 151.765 105.955 149.495 105.955 146.204V105.803C105.955 103.091 109.246 99.511 111.576 97.2715C113.907 95.0473 168.538 41.3766 170.671 39.0457C174.799 34.5364 176.094 31.5504 176.277 29.2196C176.475 26.8887 175.774 23.7352 174.891 25.2891C174.022 26.8582 171.432 31.7942 171.432 31.7942Z" fill="#9E9E9E"/>
<path d="M76.583 165.202C76.583 165.202 83.4537 161.515 85.2971 156.274C87.1404 151.034 87.7193 147.667 87.8107 140.781C87.9021 133.895 87.8107 107.646 87.8107 104.554C87.8107 100.821 83.1795 97.0887 81.0924 94.2246C80.7268 93.7219 83.8498 94.7426 86.9119 96.6012C90.6443 98.8711 94.3615 101.004 94.0111 106.519C93.6607 111.881 94.3463 125.074 94.3463 125.074L94.1025 148.931C94.1025 148.931 94.2092 158.544 88.283 161.85C83.1795 164.684 76.583 165.202 76.583 165.202Z" fill="#9E9E9E"/>
<path d="M53.2288 172.895C53.046 173.398 52.9393 178.379 56.7174 180.802C59.4292 182.538 67.8385 189.241 95.7631 189.333C128.121 189.424 137.094 179.415 138.191 176.643C139.455 173.443 138.724 170.29 138.45 170.366C138.252 170.427 137.612 172.088 136.744 173.047C135.875 174.022 129.675 181.381 112.81 183.315C95.946 185.25 78.6092 184.29 67.4729 180.984C56.3366 177.679 53.3202 172.651 53.2288 172.895Z" fill="#9E9E9E"/>
<path d="M57.5861 170.335C56.7482 171.707 57.2357 173.976 60.5873 176.048C65.4318 179.05 76.3853 181.563 82.3877 181.274C88.39 180.984 88.4967 177.115 83.0732 176.231C77.6498 175.363 70.0935 174.677 63.4971 171.097C61.7451 170.168 58.942 168.111 57.5861 170.335Z" fill="white"/>
<path d="M91.1168 169.665C91.3301 172.392 95.4739 171.798 97.5153 171.798C99.5567 171.798 102.268 171.6 102.162 169.376C102.07 167.151 98.3836 167.349 96.8297 167.441C94.9864 167.532 90.9188 167.136 91.1168 169.665Z" fill="white"/>
<path d="M97.2103 103.015C94.0416 103.061 92.7162 104.371 92.6857 114.822C92.6552 123.536 92.2744 155.33 91.7869 157.082C91.2994 158.834 89.9435 162.307 90.233 163.968C90.5224 165.613 92.4572 166.299 96.4334 166.299C100.41 166.299 102.436 164.455 102.542 162.14C102.634 159.809 101.765 158.849 101.476 157.006C101.186 155.162 101.232 123.932 101.232 115.309C101.232 108.56 101.308 102.939 97.2103 103.015Z" fill="white"/>
<path d="M35.359 38.5582C33.4395 40.4777 53.8688 60.2062 61.7145 68.0519C69.5602 75.8976 88.1309 92.6402 89.8371 90.8121C91.5434 88.984 70.718 69.9105 63.6797 62.9484C52.8176 52.2234 37.3242 36.5929 35.359 38.5582Z" fill="white"/>
<path d="M19.4697 23.004C19.2411 19.3782 22.4099 5.57583 99.3283 6.48989C175.104 7.38872 176.247 24.5883 176.018 27.7571C175.79 30.9258 169.239 26.4012 169.239 26.4012C169.239 26.4012 154.233 12.8731 98.597 12.6598C42.9458 12.4313 28.0923 18.9364 27.6353 22.3336C27.1783 25.7309 26.7365 28.4426 26.7365 28.4426L19.4697 23.004Z" fill="#BFBFBF"/>
<path d="M116.909 49.9992C131.762 38.1164 162.642 13.4824 165.065 11.5781C168.401 8.95783 178.075 2.86408 178.913 3.70197C179.75 4.53986 173.184 12.8883 168.888 16.9559C166.253 19.4391 144.94 36.9434 130.315 48.7957C121.052 56.3063 111.272 54.5086 116.909 49.9992Z" fill="#F8C977"/>
<path d="M106.702 58.6066L116.909 49.984C116.909 49.984 120.275 49.8469 123.459 49.5879C126.202 49.3594 130.284 48.8262 130.284 48.8262L111.363 64.5633L106.702 58.6066Z" fill="#E3C08F"/>
<path d="M114.227 57.7687C109.672 52.2234 99.5261 52.7566 93.4628 58.241C87.1405 63.9691 86.0589 72.4394 90.9491 78.0456C95.8393 83.6519 103.716 84.246 111.119 77.68C118.523 71.1292 117.564 61.821 114.227 57.7687Z" fill="#919F50"/>
<path d="M93.3412 66.2391C95.017 68.2652 97.3935 67.4273 99.3131 65.8734C101.187 64.35 102.36 62.0801 100.989 60.3891C99.4349 58.4848 96.9365 59.4293 95.2607 60.7547C93.5849 62.0801 91.9244 64.5328 93.3412 66.2391Z" fill="#E8DE9F"/>
<path d="M90.5377 70.7484C88.4049 72.1043 90.3701 75.7605 91.5584 77.2992C92.4115 78.3961 94.8795 81.2144 96.8295 79.5996C98.7795 77.9847 96.8295 74.9226 95.4736 72.8812C94.6205 71.6168 92.7315 69.3469 90.5377 70.7484Z" fill="#EF3E24"/>
<path d="M97.6522 44.7435C129.538 45.2614 163.937 42.6259 172.819 33.8052C180.664 26.0204 172.148 20.1856 172.148 20.1856L169.223 26.3708L164.653 31.6419L151.247 35.6485L137.536 37.6442L109.352 39.1829L79.7822 38.406L57.2963 34.8868L39.8834 31.3372L28.1834 25.1825L25.2584 19.7896C25.2584 19.7896 19.576 21.2673 19.4846 22.5317C19.3322 24.5731 20.3682 26.706 21.8611 28.5646C24.71 32.1142 40.1881 43.8294 97.6522 44.7435Z" fill="#BFBFBF"/>
<path d="M110.023 39.9446C106.382 39.9446 102.527 39.8989 98.4597 39.8075C47.5616 38.6953 31.2761 31.459 26.5534 25.5786C24.6948 23.2629 24.9386 21.4805 24.9995 21.1453C25.1671 20.3227 25.9745 19.7895 26.7972 19.9571C27.6046 20.1094 28.1226 20.8711 28.0007 21.6786C28.0007 21.77 28.0159 22.684 29.2194 24.0246C33.089 28.3055 47.2417 35.6485 98.5054 36.7606C151.506 37.9184 164.257 30.8649 167.273 27.7723C168.37 26.6602 168.34 25.9137 168.34 25.9137C168.172 25.0911 168.721 24.3293 169.543 24.177C170.366 24.0094 171.173 24.6036 171.341 25.4262C171.402 25.7309 171.615 27.361 169.924 29.3871C165.811 34.3231 151.871 39.9446 110.023 39.9446Z" fill="#FEFEFE"/>
</svg>
