<svg width="178" height="144" viewBox="0 0 178 144" fill="none" xmlns="http://www.w3.org/2000/svg">
<path d="M26.7 9.69999H31.2501C35.3107 4.32661 41.6937 0.799988 48.95 0.799988C61.2376 0.799988 71.2 10.7624 71.2 23.05V28.8851L174.637 110.262C175.681 111.044 176.529 112.059 177.112 113.226C177.696 114.393 178 115.679 178 116.984C178 123.231 171.425 127.294 165.838 124.502L132.034 107.6H105.198L92.8465 141.003C92.2151 142.736 90.3016 143.628 88.5689 142.997L82.2972 140.714C80.5645 140.082 79.6717 138.169 80.303 136.436L90.9636 107.6H80.1C79.5688 107.6 79.0543 107.536 78.5258 107.519L66.1465 141C65.5151 142.733 63.6016 143.626 61.8689 142.994L55.5972 140.711C53.8645 140.079 52.9717 138.166 53.603 136.433L65.0729 105.414C42.9036 98.9225 26.7 78.4692 26.7 54.2V31.95L0 27.5C0 17.6683 11.9538 9.69999 26.7 9.69999ZM48.95 29.725C52.6352 29.725 55.625 26.7351 55.625 23.05C55.625 19.3621 52.6352 16.375 48.95 16.375C45.2648 16.375 42.275 19.3621 42.275 23.05C42.275 26.7351 45.2648 29.725 48.95 29.725Z" fill="white"/>
</svg>
