<svg width="100" height="100" viewBox="0 0 100 100" fill="none" xmlns="http://www.w3.org/2000/svg">
<g clip-path="url(#clip0_125_2650)">
<path d="M50 99.2188C77.1828 99.2188 99.2188 77.1828 99.2188 50C99.2188 22.8172 77.1828 0.78125 50 0.78125C22.8172 0.78125 0.78125 22.8172 0.78125 50C0.78125 77.1828 22.8172 99.2188 50 99.2188Z" fill="#EE7DB0"/>
<path d="M85 15H82.4375C80.1562 11.9844 76.5781 10 72.5 10C65.5938 10 60 15.5938 60 22.5V25.7813L1.89062 71.5C0.703125 72.3906 0 73.7813 0 75.2656C0 78.7813 3.6875 81.0625 6.82812 79.4844L25.8281 70H40.9062L47.8438 88.7656C48.2031 89.7344 49.2656 90.2344 50.25 89.8906L53.7656 88.6094C54.7344 88.25 55.2344 87.1719 54.8906 86.2031L48.8906 70H55C55.2969 70 55.5938 69.9688 55.8906 69.9531L62.8438 88.7656C63.2031 89.7344 64.2656 90.2344 65.25 89.8906L68.7656 88.6094C69.7344 88.25 70.2344 87.1719 69.8906 86.2031L63.4375 68.7656C75.8906 65.125 85 53.625 85 40V27.5L100 25C100 19.4844 93.2812 15 85 15ZM72.5 26.25C70.4219 26.25 68.75 24.5625 68.75 22.5C68.75 20.4219 70.4375 18.75 72.5 18.75C74.5625 18.75 76.25 20.4219 76.25 22.5C76.25 24.5781 74.5781 26.25 72.5 26.25Z" fill="black"/>
</g>
<defs>
<clipPath id="clip0_125_2650">
<rect width="100" height="100" fill="white"/>
</clipPath>
</defs>
</svg>
