<svg width="83" height="83" viewBox="0 0 83 83" fill="none" xmlns="http://www.w3.org/2000/svg">
<g clip-path="url(#clip0_116_417)">
<path d="M50.2841 12.6729C50.2768 12.6747 44.7894 22.1255 41.5002 24.2096C38.211 22.1255 32.7236 12.6747 32.7236 12.6747C35.4529 4.54863 38.0154 0 41.5002 0C44.9851 0 47.5476 4.54863 50.2841 12.6729Z" fill="#B7BF03"/>
<path d="M41.4997 18.7729V35.0829C36.9529 32.2014 33.0439 23.9486 30.166 20.9548C31.0503 17.8885 31.8912 15.1175 32.7158 12.6729C35.2058 14.7315 38.2105 16.6888 41.4997 18.7729Z" fill="#BD60B2"/>
<path d="M41.5001 29.6462V45.9562C35.5922 42.2139 30.7101 33.3866 27.8594 29.1515C28.6694 26.2265 29.4343 23.4882 30.1646 20.9547C33.0443 23.9486 36.9532 26.7647 41.5001 29.6462Z" fill="#C392BF"/>
<path d="M27.8589 29.1515C30.7096 33.3866 35.5917 36.7773 41.4996 40.5196V56.8296C33.8991 52.0126 27.9695 42.4333 25.9199 36.1828C25.9942 35.8802 26.0739 35.5739 26.161 35.264C26.7517 33.1457 27.3154 31.1051 27.8589 29.1515Z" fill="#FFADD4"/>
<path d="M41.4997 51.3929V62.2662C30.2185 55.1188 22.6235 49.4519 25.9182 36.1828C27.9695 42.4333 33.8992 46.5761 41.4997 51.3929Z" fill="#FFD3FF"/>
<path d="M52.8355 20.9547C49.9558 23.9486 46.0468 30.3892 41.5 33.2707V18.7729C44.7892 16.6888 47.7939 14.7317 50.2766 12.6748C51.1084 15.1177 51.9492 17.8884 52.8355 20.9547Z" fill="#693F9E"/>
<path d="M52.8355 20.9547C53.5658 23.4882 54.3306 26.2265 55.1407 29.1515C52.29 33.3866 47.4079 40.4019 41.5 44.144V29.6462C46.0468 26.7647 49.9558 23.9486 52.8355 20.9547Z" fill="#4B58E3"/>
<path d="M55.1405 29.1515C55.6842 31.1051 56.2477 33.1457 56.8386 35.2641C56.9257 35.5741 57.0053 35.8803 57.0815 36.183C55.03 42.4334 49.1003 50.2006 41.5 55.0175V40.5197C47.4078 36.7773 52.2898 33.3866 55.1405 29.1515Z" fill="#089AC6"/>
<path d="M57.0815 36.183C60.376 49.4521 52.781 55.119 41.5 62.2664V51.3931C49.1005 46.5761 55.0301 42.4333 57.0815 36.183Z" fill="#51E9D3"/>
<path d="M52.5836 61.4255C53.0657 62.0652 52.937 62.9732 52.2973 63.4553C50.0936 65.1171 47.7051 66.6847 44.7983 68.5259L42.1326 70.2149L41.5 69.8142V67.1828L43.2451 66.0756C46.0939 64.2725 48.4263 62.743 50.552 61.1391C51.1919 60.6571 52.1015 60.7857 52.5836 61.4255Z" fill="#089AC6"/>
<path d="M47.2756 73.4913C47.9461 73.928 48.1364 74.8269 47.6997 75.4974C47.4206 75.9251 46.9568 76.157 46.4837 76.157C46.2119 76.157 45.9382 76.0808 45.6936 75.9215C44.9886 75.463 44.2113 74.9646 43.2453 74.3521L41.5 73.2465V70.6152L42.1324 70.2146L44.7981 71.9036C45.7732 72.5217 46.5615 73.0256 47.2756 73.4913Z" fill="#51E9D3"/>
<path d="M41.4997 70.6152V73.2465L39.7546 74.352C38.7888 74.9646 38.0113 75.4629 37.3063 75.9213C36.6358 76.3581 35.7369 76.1677 35.3002 75.4973C34.8635 74.8268 35.0538 73.9279 35.7243 73.4911C36.4383 73.0254 37.2265 72.5216 38.2034 71.9036L40.8673 70.2146L41.4997 70.6152Z" fill="#FFD3FF"/>
<path d="M41.5003 67.1828V69.8142L40.8679 70.2148L38.2021 68.5258C35.2954 66.6845 32.9068 65.1169 30.7031 63.4551C30.0634 62.973 29.9347 62.0652 30.4168 61.4254C30.899 60.7857 31.8086 60.6587 32.4484 61.1391C34.5741 62.7428 36.9064 64.2725 39.7553 66.0756L41.5003 67.1828Z" fill="#FFADD4"/>
<path d="M41.4995 83C40.6989 83 40.0498 82.3509 40.0498 81.5502V16.9599C40.0498 16.1592 40.6989 15.5101 41.4995 15.5101C42.3002 15.5101 42.9493 16.1592 42.9493 16.9599V81.5502C42.9493 82.3509 42.3002 83 41.4995 83Z" fill="#80086E"/>
</g>
<defs>
<clipPath id="clip0_116_417">
<rect width="83" height="83" fill="white"/>
</clipPath>
</defs>
</svg>
