<svg width="162" height="162" viewBox="0 0 162 162" fill="none" xmlns="http://www.w3.org/2000/svg">
<g clip-path="url(#clip0_125_2598)">
<path d="M119.88 39.4358C126.356 45.5639 127.57 55.1702 123.361 62.5933L92.1631 68.7259L100.607 48.957L119.88 39.4358Z" fill="#FFADD4"/>
<path d="M119.879 39.4358L80.8903 80.6384L85.2726 48.3609L93.0165 40.1774C100.229 32.5552 112.257 32.2232 119.879 39.4358Z" fill="#FFD3FF"/>
<path d="M58.4716 104.33L62.854 72.0522L85.2725 48.3609L86.014 75.2237L58.4716 104.33Z" fill="#C392BF"/>
<path d="M63.596 98.915L53.9529 109.106C46.3308 101.893 45.9988 89.8649 53.2114 82.2428L62.8545 72.0522L63.596 98.915Z" fill="#80086E"/>
<path d="M120.621 66.2987L101.731 86.261L69.744 92.4174L97.2865 63.3112L123.361 62.5932C122.618 63.9092 121.705 65.1525 120.621 66.2987Z" fill="#80086E"/>
<path d="M101.731 86.261L80.8153 108.364C73.6026 115.986 61.5746 116.318 53.9525 109.106L74.8681 87.0025L101.731 86.261Z" fill="#C392BF"/>
<path d="M41.6552 122.101C40.8577 121.346 40.823 120.088 41.5776 119.291L113.311 43.4842C114.066 42.6868 115.324 42.6521 116.122 43.4067C116.919 44.1613 116.954 45.4195 116.199 46.2169L44.4654 122.023C43.7108 122.821 42.4526 122.856 41.6552 122.101Z" fill="#FFE8FF"/>
</g>
<defs>
<clipPath id="clip0_125_2598">
<rect width="113.809" height="113.809" fill="white" transform="translate(78.5469 0.323853) rotate(43.4188)"/>
</clipPath>
</defs>
</svg>
